<svg version="1.1" id="Layer_1" xmlns="http://www.w3.org/2000/svg" xmlns:xlink="http://www.w3.org/1999/xlink" x="0px" y="0px"
	 width="100%" viewBox="0 0 512 512" enable-background="new 0 0 512 512" xml:space="preserve">
<path fill="#E31E24" opacity="1.000000" stroke="none" 
	d="
M289.000000,513.000000 
	C192.690048,513.000000 96.880096,513.000000 1.035069,513.000000 
	C1.035069,342.398346 1.035069,171.796707 1.035069,1.097524 
	C171.559967,1.097524 342.120026,1.097524 512.840027,1.097524 
	C512.840027,171.666550 512.840027,342.333252 512.840027,513.000000 
	C438.463348,513.000000 363.981659,513.000000 289.000000,513.000000 
M410.858765,202.845718 
	C410.829346,204.222046 410.799927,205.598373 410.132263,206.959427 
	C407.204773,208.274826 408.876465,209.357574 410.416016,210.112381 
	C413.835449,211.788879 416.926483,211.089767 419.149475,208.020920 
	C421.108643,205.316284 419.917908,200.555618 417.127838,198.841766 
	C414.616180,197.298935 409.857178,199.010742 407.684021,202.489334 
	C408.850037,202.313141 409.786346,202.171661 410.858765,202.845718 
M356.982819,284.767242 
	C359.485535,284.796478 361.988251,284.848816 364.490997,284.850922 
	C375.646210,284.860291 386.801392,284.855591 397.956604,284.855438 
	C405.438568,284.855316 406.816345,283.450836 407.219330,275.127228 
	C406.531677,275.464233 405.830719,275.603516 405.442749,276.028503 
	C399.556671,282.476959 391.785492,283.179840 383.849213,282.785889 
	C382.267120,282.707397 379.835876,280.873840 379.459930,279.419495 
	C378.752014,276.681091 379.255737,273.629425 379.255737,270.905273 
	C385.987518,269.126343 389.612427,272.684052 392.977905,278.425446 
	C392.977905,271.871765 392.977905,267.040344 392.977905,262.208954 
	C389.554199,267.543427 385.234467,269.195557 379.181976,267.733307 
	C379.181976,265.074158 378.986420,262.425964 379.278748,259.832703 
	C379.394867,258.802399 380.644653,257.027222 381.289398,257.066101 
	C386.869812,257.402710 392.527710,257.644928 397.944824,258.874329 
	C399.927917,259.324371 401.325745,262.353271 403.787109,265.092102 
	C403.787109,260.719727 403.787109,257.874023 403.787109,255.211456 
	C389.014038,255.211456 374.587555,255.211456 360.161072,255.211456 
	C366.594879,257.061371 366.597839,257.061371 366.608215,263.777771 
	C366.614410,267.773651 366.123291,271.843048 366.713837,275.749664 
	C367.837067,283.179962 362.751251,284.508301 355.363251,282.914307 
	C350.225586,278.925812 345.087891,274.937317 339.356781,270.488129 
	C341.996918,269.749512 343.731171,269.722107 344.810638,268.867523 
	C347.093567,267.060333 350.307983,265.097565 350.829102,262.696899 
	C351.697571,258.696350 347.663940,256.719910 344.482391,256.460999 
	C331.356934,255.392776 318.187256,254.867935 305.033813,254.143387 
	C304.843201,254.722183 304.652588,255.300964 304.461975,255.879761 
	C310.956116,255.526764 311.965546,259.144073 311.483551,264.149323 
	C311.197937,267.115234 311.498810,270.132996 311.416077,273.124146 
	C311.283813,277.906769 313.364166,283.952148 305.264648,284.486328 
	C313.681183,284.486328 322.097748,284.486328 331.501953,284.486328 
	C323.562042,281.578766 322.450684,279.009491 325.066711,270.513702 
	C328.173401,272.997650 331.495636,274.997345 333.966064,277.759094 
	C340.036102,284.544922 347.504639,286.024628 356.982819,284.767242 
M258.720490,245.254181 
	C256.391418,245.814407 254.062363,246.374634 251.733292,246.934860 
	C252.604507,248.322342 253.334503,248.662384 254.063538,248.660339 
	C265.872406,248.627167 277.685028,248.711945 289.488708,248.431488 
	C298.534454,248.216568 307.368500,246.649597 315.304871,241.925552 
	C331.374420,232.360275 331.538361,210.739563 315.242889,201.560822 
	C310.049713,198.635696 303.777954,196.564209 297.866333,196.185776 
	C283.282684,195.252213 268.621826,195.517365 253.991562,195.341293 
	C253.282516,195.332764 252.568771,195.712479 250.921082,196.173096 
	C252.420517,196.957504 253.016327,197.462280 253.683884,197.588898 
	C261.425140,199.057541 261.822266,199.493240 261.830048,207.188217 
	C261.840271,217.335541 261.979370,227.486588 261.725891,237.627579 
	C261.664917,240.067017 260.276001,242.473267 258.720490,245.254181 
M335.320923,246.022552 
	C333.910065,246.286865 332.499207,246.551163 331.088348,246.815475 
	C331.871368,248.299469 332.580231,248.735870 333.286438,248.731506 
	C345.775452,248.654648 358.268555,248.685959 370.751465,248.349838 
	C379.491882,248.114487 387.960571,246.306915 395.492249,241.568237 
	C410.306366,232.247711 410.894623,211.689560 396.075745,202.528107 
	C390.492249,199.076248 383.511169,196.693665 376.986908,196.198349 
	C362.570648,195.103851 348.040131,195.503647 333.555664,195.346451 
	C332.729919,195.337494 331.899048,195.800781 329.795807,196.418915 
	C331.894501,197.102509 332.713348,197.494537 333.572540,197.629288 
	C340.481873,198.712875 341.116302,199.373840 341.131317,206.145966 
	C341.155670,217.140030 341.076904,228.134705 341.168152,239.128067 
	C341.198639,242.800781 339.962524,245.256104 335.320923,246.022552 
M237.589096,236.829147 
	C229.420700,223.489624 221.275177,210.136017 213.070175,196.819046 
	C210.558548,192.742599 209.251297,192.751755 206.827087,196.760147 
	C204.244476,201.030457 202.017944,205.540207 199.174667,209.624298 
	C190.366699,222.276169 186.451904,238.289627 172.652710,248.047821 
	C180.638275,248.047821 188.234055,248.047821 195.829834,248.047821 
	C195.869659,247.575241 195.909500,247.102646 195.949326,246.630066 
	C194.292282,246.378479 192.519791,246.410736 191.010223,245.796631 
	C189.455566,245.164215 187.427338,244.191925 186.896362,242.855698 
	C185.739441,239.944321 191.288162,233.089569 194.453735,233.068054 
	C200.285812,233.028412 206.118439,233.040756 211.950714,233.062393 
	C215.362671,233.075043 220.607620,238.273346 220.610596,242.221741 
	C220.614014,246.731644 216.721069,245.724442 213.973404,246.250534 
	C213.413742,246.357697 212.925705,246.838913 211.206833,247.857559 
	C224.544388,247.857559 236.528915,247.857559 248.513428,247.857559 
	C242.914185,246.157547 240.426605,241.820358 237.589096,236.829147 
M134.688629,245.263382 
	C124.086685,244.455307 117.866623,239.646835 115.367638,230.327164 
	C112.297775,218.878464 115.487427,206.207291 122.993004,201.152191 
	C125.138489,199.707184 127.724182,198.595703 130.258179,198.101929 
	C142.477829,195.720825 153.061890,200.492844 159.766708,210.941956 
	C160.514740,212.107712 161.930664,212.844910 163.636902,214.288559 
	C163.636902,206.662170 163.636902,200.465347 163.636902,194.164703 
	C161.404526,194.861832 147.056000,195.413239 144.501801,195.033707 
	C131.307358,193.073151 118.521980,193.928986 107.104477,201.601273 
	C91.255943,212.251099 91.208679,231.431183 106.995918,242.112823 
	C118.898087,250.165848 132.167358,250.849518 145.825134,248.343811 
	C153.137207,247.002335 159.697098,244.055283 164.822495,237.948456 
	C162.978912,237.582825 160.980667,237.422913 159.645981,238.287445 
	C152.299271,243.046188 144.353607,245.479431 134.688629,245.263382 
M151.282181,284.856232 
	C162.935272,284.856964 174.588348,284.858398 186.241440,284.858215 
	C193.223877,284.858124 194.785782,283.176208 194.994385,275.022583 
	C192.434143,276.878418 190.249832,278.968536 187.657593,280.199738 
	C185.012833,281.455902 182.011490,282.175690 179.089417,282.595856 
	C167.325943,284.287354 165.733139,282.581573 167.454208,270.611115 
	C173.354019,269.510010 177.608871,271.829895 180.082687,277.883667 
	C180.388153,277.555939 180.693619,277.228180 180.999084,276.900452 
	C180.999084,272.007172 180.999084,267.113892 180.999084,262.220642 
	C180.683105,261.828033 180.367126,261.435455 180.051132,261.042847 
	C177.796982,267.982269 172.998611,268.861694 166.991165,267.932434 
	C166.991165,265.960358 167.200134,264.122559 166.950104,262.349487 
	C166.320465,257.884186 168.195602,256.497070 172.537582,256.720703 
	C179.627151,257.085876 187.068405,256.097290 191.761627,263.785034 
	C191.761627,260.937103 191.761627,258.089172 191.761627,255.158112 
	C177.080841,255.158112 162.437317,255.158112 147.793808,255.158112 
	C153.762039,255.449524 154.933151,258.936798 154.411560,264.032593 
	C154.108032,266.998047 154.404800,270.020905 154.345490,273.016266 
	C154.250427,277.816376 156.346268,283.831757 148.228760,284.659454 
	C148.980011,284.724762 149.731247,284.790100 151.282181,284.856232 
M242.038788,269.955017 
	C242.038788,270.863953 242.038788,271.772858 242.038788,273.561127 
	C235.285095,268.883484 228.807556,265.318787 223.480820,260.485748 
	C216.006546,253.704178 207.551636,254.455475 198.353485,255.471741 
	C205.648911,256.638885 206.430908,261.464020 205.777451,267.238220 
	C205.554321,269.209778 205.742050,271.227814 205.741898,273.224609 
	C205.741287,281.262085 205.741272,281.262085 199.188675,284.383057 
	C204.726410,284.383057 209.991013,284.383057 214.343033,284.383057 
	C212.695618,282.836151 209.529053,281.285919 209.287811,279.367828 
	C208.580124,273.740936 209.035767,267.967712 209.035767,261.461456 
	C221.256577,269.989502 232.682190,277.962677 245.238556,286.724884 
	C245.238556,278.196228 245.467896,271.407928 245.163757,264.643616 
	C244.933105,259.513367 245.946899,255.804306 251.895050,255.124344 
	C246.403381,255.124344 240.911713,255.124344 235.420044,255.124344 
	C241.462585,255.715057 242.723938,259.405701 242.067810,264.586884 
	C241.881149,266.060852 242.039200,267.578461 242.038788,269.955017 
M284.199860,262.475891 
	C284.199860,260.720306 284.199860,258.964691 284.199860,257.241821 
	C291.562927,255.877975 296.727325,258.405334 300.975769,263.790710 
	C300.975769,260.908539 300.975769,258.026337 300.975769,254.946014 
	C285.529785,254.946014 270.307922,254.946014 255.075745,254.946014 
	C255.075745,258.115906 255.075745,261.049500 255.075745,263.983093 
	C255.405914,264.360931 255.736069,264.738800 256.066254,265.116669 
	C259.225159,257.703186 264.795715,256.141907 271.831665,257.239471 
	C271.831665,264.519318 272.039185,271.656494 271.665131,278.763092 
	C271.585632,280.272919 269.492249,281.785004 268.115784,283.070099 
	C267.481018,283.662750 266.337921,283.710938 265.425323,284.006012 
	C265.489044,284.171875 265.552765,284.337769 265.616516,284.503662 
	C273.914612,284.503662 282.212708,284.503662 291.361481,284.503662 
	C284.200226,281.694580 284.200165,281.694580 284.199860,273.952972 
	C284.199707,270.460693 284.199829,266.968384 284.199860,262.475891 
M126.990273,254.481461 
	C118.413040,253.627289 110.042229,254.149063 102.276443,258.374390 
	C97.866203,260.773987 94.199776,263.885437 94.076935,269.392395 
	C93.949409,275.108887 97.433296,278.746429 102.135277,280.997772 
	C115.098770,287.204803 128.090225,286.979950 140.901428,280.354156 
	C141.398727,280.096985 141.781876,279.619049 142.218216,279.243988 
	C142.040405,278.859375 141.862579,278.474762 141.684769,278.090149 
	C140.361053,278.547729 138.989365,278.900421 137.721710,279.480499 
	C131.381989,282.381470 124.794357,283.923401 117.866852,282.495117 
	C110.832603,281.044800 107.193840,276.374054 107.231285,269.452148 
	C107.269592,262.372223 111.287415,257.323486 118.384613,256.296600 
	C126.191605,255.167023 133.271194,256.786926 138.579956,263.279633 
	C139.189865,264.025574 140.147522,264.487122 141.237167,265.299011 
	C141.237167,261.142670 141.237167,257.697632 141.237167,255.667343 
	C136.317535,255.287933 132.095383,254.962311 126.990273,254.481461 
z"/>
<path fill="#FEF8F8" opacity="1.000000" stroke="none" 
	d="
M259.109131,245.074463 
	C260.276001,242.473267 261.664917,240.067017 261.725891,237.627579 
	C261.979370,227.486588 261.840271,217.335541 261.830048,207.188217 
	C261.822266,199.493240 261.425140,199.057541 253.683884,197.588898 
	C253.016327,197.462280 252.420517,196.957504 250.921082,196.173096 
	C252.568771,195.712479 253.282516,195.332764 253.991562,195.341293 
	C268.621826,195.517365 283.282684,195.252213 297.866333,196.185776 
	C303.777954,196.564209 310.049713,198.635696 315.242889,201.560822 
	C331.538361,210.739563 331.374420,232.360275 315.304871,241.925552 
	C307.368500,246.649597 298.534454,248.216568 289.488708,248.431488 
	C277.685028,248.711945 265.872406,248.627167 254.063538,248.660339 
	C253.334503,248.662384 252.604507,248.322342 251.733292,246.934860 
	C254.062363,246.374634 256.391418,245.814407 259.109131,245.074463 
M307.706299,215.270050 
	C304.465729,202.870865 295.989899,196.908737 283.905090,198.945419 
	C282.407684,199.197784 280.139160,201.442017 280.108185,202.805954 
	C279.817688,215.594208 279.851135,228.393219 280.067688,241.184433 
	C280.089935,242.498032 281.694519,244.619568 282.938171,244.946640 
	C293.574829,247.744049 305.147644,240.753052 307.273682,229.995300 
	C308.159943,225.510925 307.703064,220.761108 307.706299,215.270050 
z"/>
<path fill="#FEF7F7" opacity="1.000000" stroke="none" 
	d="
M335.727478,245.980988 
	C339.962524,245.256104 341.198639,242.800781 341.168152,239.128067 
	C341.076904,228.134705 341.155670,217.140030 341.131317,206.145966 
	C341.116302,199.373840 340.481873,198.712875 333.572540,197.629288 
	C332.713348,197.494537 331.894501,197.102509 329.795807,196.418915 
	C331.899048,195.800781 332.729919,195.337494 333.555664,195.346451 
	C348.040131,195.503647 362.570648,195.103851 376.986908,196.198349 
	C383.511169,196.693665 390.492249,199.076248 396.075745,202.528107 
	C410.894623,211.689560 410.306366,232.247711 395.492249,241.568237 
	C387.960571,246.306915 379.491882,248.114487 370.751465,248.349838 
	C358.268555,248.685959 345.775452,248.654648 333.286438,248.731506 
	C332.580231,248.735870 331.871368,248.299469 331.088348,246.815475 
	C332.499207,246.551163 333.910065,246.286865 335.727478,245.980988 
M366.524963,198.620972 
	C363.068970,198.781250 359.195190,198.209778 359.218903,203.604797 
	C359.272919,215.893402 359.135864,228.184296 359.367798,240.468781 
	C359.396973,242.013565 360.874969,244.475204 362.198425,244.899246 
	C371.294739,247.813705 383.657654,241.343399 386.108765,232.109741 
	C387.314484,227.567566 387.761871,222.559189 387.292755,217.888290 
	C386.015259,205.168365 380.159454,199.830627 366.524963,198.620972 
z"/>
<path fill="#FEF6F7" opacity="1.000000" stroke="none" 
	d="
M237.780472,237.138275 
	C240.426605,241.820358 242.914185,246.157547 248.513428,247.857559 
	C236.528915,247.857559 224.544388,247.857559 211.206833,247.857559 
	C212.925705,246.838913 213.413742,246.357697 213.973404,246.250534 
	C216.721069,245.724442 220.614014,246.731644 220.610596,242.221741 
	C220.607620,238.273346 215.362671,233.075043 211.950714,233.062393 
	C206.118439,233.040756 200.285812,233.028412 194.453735,233.068054 
	C191.288162,233.089569 185.739441,239.944321 186.896362,242.855698 
	C187.427338,244.191925 189.455566,245.164215 191.010223,245.796631 
	C192.519791,246.410736 194.292282,246.378479 195.949326,246.630066 
	C195.909500,247.102646 195.869659,247.575241 195.829834,248.047821 
	C188.234055,248.047821 180.638275,248.047821 172.652710,248.047821 
	C186.451904,238.289627 190.366699,222.276169 199.174667,209.624298 
	C202.017944,205.540207 204.244476,201.030457 206.827087,196.760147 
	C209.251297,192.751755 210.558548,192.742599 213.070175,196.819046 
	C221.275177,210.136017 229.420700,223.489624 237.780472,237.138275 
M209.753433,222.775284 
	C207.576126,219.221176 205.398834,215.667068 202.893951,211.578201 
	C199.510895,217.843903 196.576752,223.278152 193.423370,229.118469 
	C200.434692,229.118469 206.660019,229.118469 213.370636,229.118469 
	C212.057938,226.838074 211.076385,225.132919 209.753433,222.775284 
z"/>
<path fill="#FEF8F8" opacity="1.000000" stroke="none" 
	d="
M135.146805,245.280502 
	C144.353607,245.479431 152.299271,243.046188 159.645981,238.287445 
	C160.980667,237.422913 162.978912,237.582825 164.822495,237.948456 
	C159.697098,244.055283 153.137207,247.002335 145.825134,248.343811 
	C132.167358,250.849518 118.898087,250.165848 106.995918,242.112823 
	C91.208679,231.431183 91.255943,212.251099 107.104477,201.601273 
	C118.521980,193.928986 131.307358,193.073151 144.501801,195.033707 
	C147.056000,195.413239 161.404526,194.861832 163.636902,194.164703 
	C163.636902,200.465347 163.636902,206.662170 163.636902,214.288559 
	C161.930664,212.844910 160.514740,212.107712 159.766708,210.941956 
	C153.061890,200.492844 142.477829,195.720825 130.258179,198.101929 
	C127.724182,198.595703 125.138489,199.707184 122.993004,201.152191 
	C115.487427,206.207291 112.297775,218.878464 115.367638,230.327164 
	C117.866623,239.646835 124.086685,244.455307 135.146805,245.280502 
z"/>
<path fill="#FEF4F5" opacity="1.000000" stroke="none" 
	d="
M355.993317,284.638977 
	C347.504639,286.024628 340.036102,284.544922 333.966064,277.759094 
	C331.495636,274.997345 328.173401,272.997650 325.066711,270.513702 
	C322.450684,279.009491 323.562042,281.578766 331.501953,284.486328 
	C322.097748,284.486328 313.681183,284.486328 305.264648,284.486328 
	C313.364166,283.952148 311.283813,277.906769 311.416077,273.124146 
	C311.498810,270.132996 311.197937,267.115234 311.483551,264.149323 
	C311.965546,259.144073 310.956116,255.526764 304.461975,255.879761 
	C304.652588,255.300964 304.843201,254.722183 305.033813,254.143387 
	C318.187256,254.867935 331.356934,255.392776 344.482391,256.460999 
	C347.663940,256.719910 351.697571,258.696350 350.829102,262.696899 
	C350.307983,265.097565 347.093567,267.060333 344.810638,268.867523 
	C343.731171,269.722107 341.996918,269.749512 339.356781,270.488129 
	C345.087891,274.937317 350.225586,278.925812 355.677704,283.300690 
	C355.988892,284.004364 355.989258,284.321686 355.993317,284.638977 
M331.834625,268.847595 
	C335.952087,267.848358 338.353699,265.557037 337.221405,261.046936 
	C336.358002,257.607941 330.402527,254.886841 326.283783,257.058319 
	C321.165771,259.756622 325.278595,264.915680 323.817566,268.950958 
	C326.715179,268.950958 328.842865,268.950958 331.834625,268.847595 
z"/>
<path fill="#FDF3F3" opacity="1.000000" stroke="none" 
	d="
M356.488068,284.703125 
	C355.989258,284.321686 355.988892,284.004364 355.994507,283.449097 
	C362.751251,284.508301 367.837067,283.179962 366.713837,275.749664 
	C366.123291,271.843048 366.614410,267.773651 366.608215,263.777771 
	C366.597839,257.061371 366.594879,257.061371 360.161072,255.211456 
	C374.587555,255.211456 389.014038,255.211456 403.787109,255.211456 
	C403.787109,257.874023 403.787109,260.719727 403.787109,265.092102 
	C401.325745,262.353271 399.927917,259.324371 397.944824,258.874329 
	C392.527710,257.644928 386.869812,257.402710 381.289398,257.066101 
	C380.644653,257.027222 379.394867,258.802399 379.278748,259.832703 
	C378.986420,262.425964 379.181976,265.074158 379.181976,267.733307 
	C385.234467,269.195557 389.554199,267.543427 392.977905,262.208954 
	C392.977905,267.040344 392.977905,271.871765 392.977905,278.425446 
	C389.612427,272.684052 385.987518,269.126343 379.255737,270.905273 
	C379.255737,273.629425 378.752014,276.681091 379.459930,279.419495 
	C379.835876,280.873840 382.267120,282.707397 383.849213,282.785889 
	C391.785492,283.179840 399.556671,282.476959 405.442749,276.028503 
	C405.830719,275.603516 406.531677,275.464233 407.219330,275.127228 
	C406.816345,283.450836 405.438568,284.855316 397.956604,284.855438 
	C386.801392,284.855591 375.646210,284.860291 364.490997,284.850922 
	C361.988251,284.848816 359.485535,284.796478 356.488068,284.703125 
z"/>
<path fill="#FDF2F2" opacity="1.000000" stroke="none" 
	d="
M150.882324,284.855835 
	C149.731247,284.790100 148.980011,284.724762 148.228760,284.659454 
	C156.346268,283.831757 154.250427,277.816376 154.345490,273.016266 
	C154.404800,270.020905 154.108032,266.998047 154.411560,264.032593 
	C154.933151,258.936798 153.762039,255.449524 147.793808,255.158112 
	C162.437317,255.158112 177.080841,255.158112 191.761627,255.158112 
	C191.761627,258.089172 191.761627,260.937103 191.761627,263.785034 
	C187.068405,256.097290 179.627151,257.085876 172.537582,256.720703 
	C168.195602,256.497070 166.320465,257.884186 166.950104,262.349487 
	C167.200134,264.122559 166.991165,265.960358 166.991165,267.932434 
	C172.998611,268.861694 177.796982,267.982269 180.051132,261.042847 
	C180.367126,261.435455 180.683105,261.828033 180.999084,262.220642 
	C180.999084,267.113892 180.999084,272.007172 180.999084,276.900452 
	C180.693619,277.228180 180.388153,277.555939 180.082687,277.883667 
	C177.608871,271.829895 173.354019,269.510010 167.454208,270.611115 
	C165.733139,282.581573 167.325943,284.287354 179.089417,282.595856 
	C182.011490,282.175690 185.012833,281.455902 187.657593,280.199738 
	C190.249832,278.968536 192.434143,276.878418 194.994385,275.022583 
	C194.785782,283.176208 193.223877,284.858124 186.241440,284.858215 
	C174.588348,284.858398 162.935272,284.856964 150.882324,284.855835 
z"/>
<path fill="#FEF8F8" opacity="1.000000" stroke="none" 
	d="
M242.038986,269.515533 
	C242.039200,267.578461 241.881149,266.060852 242.067810,264.586884 
	C242.723938,259.405701 241.462585,255.715057 235.420044,255.124344 
	C240.911713,255.124344 246.403381,255.124344 251.895050,255.124344 
	C245.946899,255.804306 244.933105,259.513367 245.163757,264.643616 
	C245.467896,271.407928 245.238556,278.196228 245.238556,286.724884 
	C232.682190,277.962677 221.256577,269.989502 209.035767,261.461456 
	C209.035767,267.967712 208.580124,273.740936 209.287811,279.367828 
	C209.529053,281.285919 212.695618,282.836151 214.343033,284.383057 
	C209.991013,284.383057 204.726410,284.383057 199.188675,284.383057 
	C205.741272,281.262085 205.741287,281.262085 205.741898,273.224609 
	C205.742050,271.227814 205.554321,269.209778 205.777451,267.238220 
	C206.430908,261.464020 205.648911,256.638885 198.353485,255.471741 
	C207.551636,254.455475 216.006546,253.704178 223.480820,260.485748 
	C228.807556,265.318787 235.285095,268.883484 242.038788,273.561127 
	C242.038788,271.772858 242.038788,270.863953 242.038986,269.515533 
z"/>
<path fill="#FEF8F8" opacity="1.000000" stroke="none" 
	d="
M284.199829,262.976013 
	C284.199829,266.968384 284.199707,270.460693 284.199860,273.952972 
	C284.200165,281.694580 284.200226,281.694580 291.361481,284.503662 
	C282.212708,284.503662 273.914612,284.503662 265.616516,284.503662 
	C265.552765,284.337769 265.489044,284.171875 265.425323,284.006012 
	C266.337921,283.710938 267.481018,283.662750 268.115784,283.070099 
	C269.492249,281.785004 271.585632,280.272919 271.665131,278.763092 
	C272.039185,271.656494 271.831665,264.519318 271.831665,257.239471 
	C264.795715,256.141907 259.225159,257.703186 256.066254,265.116669 
	C255.736069,264.738800 255.405914,264.360931 255.075745,263.983093 
	C255.075745,261.049500 255.075745,258.115906 255.075745,254.946014 
	C270.307922,254.946014 285.529785,254.946014 300.975769,254.946014 
	C300.975769,258.026337 300.975769,260.908539 300.975769,263.790710 
	C296.727325,258.405334 291.562927,255.877975 284.199860,257.241821 
	C284.199860,258.964691 284.199860,260.720306 284.199829,262.976013 
z"/>
<path fill="#FDF3F3" opacity="1.000000" stroke="none" 
	d="
M127.431747,254.559082 
	C132.095383,254.962311 136.317535,255.287933 141.237167,255.667343 
	C141.237167,257.697632 141.237167,261.142670 141.237167,265.299011 
	C140.147522,264.487122 139.189865,264.025574 138.579956,263.279633 
	C133.271194,256.786926 126.191605,255.167023 118.384613,256.296600 
	C111.287415,257.323486 107.269592,262.372223 107.231285,269.452148 
	C107.193840,276.374054 110.832603,281.044800 117.866852,282.495117 
	C124.794357,283.923401 131.381989,282.381470 137.721710,279.480499 
	C138.989365,278.900421 140.361053,278.547729 141.684769,278.090149 
	C141.862579,278.474762 142.040405,278.859375 142.218216,279.243988 
	C141.781876,279.619049 141.398727,280.096985 140.901428,280.354156 
	C128.090225,286.979950 115.098770,287.204803 102.135277,280.997772 
	C97.433296,278.746429 93.949409,275.108887 94.076935,269.392395 
	C94.199776,263.885437 97.866203,260.773987 102.276443,258.374390 
	C110.042229,254.149063 118.413040,253.627289 127.431747,254.559082 
z"/>
<path fill="#E6393E" opacity="1.000000" stroke="none" 
	d="
M410.722656,202.030182 
	C409.786346,202.171661 408.850037,202.313141 407.684021,202.489334 
	C409.857178,199.010742 414.616180,197.298935 417.127838,198.841766 
	C419.917908,200.555618 421.108643,205.316284 419.149475,208.020920 
	C416.926483,211.089767 413.835449,211.788879 410.416016,210.112381 
	C408.876465,209.357574 407.204773,208.274826 410.607056,207.147156 
	C411.245667,207.656845 411.507812,207.805542 412.110596,208.013977 
	C413.562164,208.139984 414.771362,208.032990 415.932617,207.631165 
	C415.571136,206.861359 415.257599,206.386368 414.980225,205.885345 
	C415.016357,205.859329 415.074829,205.926498 414.993286,205.560944 
	C413.885742,204.489120 412.859711,203.782867 411.442017,202.807022 
	C412.635101,202.205093 413.364349,201.837158 414.093628,201.469238 
	C414.027161,201.275803 413.960724,201.082367 413.894257,200.888931 
	C412.837067,201.269348 411.779846,201.649780 410.722656,202.030182 
z"/>
<path fill="#FDF2F2" opacity="1.000000" stroke="none" 
	d="
M410.790710,202.437958 
	C411.779846,201.649780 412.837067,201.269348 413.894257,200.888931 
	C413.960724,201.082367 414.027161,201.275803 414.093628,201.469238 
	C413.364349,201.837158 412.635101,202.205093 411.442017,202.807022 
	C412.859711,203.782867 413.885742,204.489120 414.651367,205.657837 
	C411.530792,203.606445 412.193604,206.444290 411.868195,207.780975 
	C411.507812,207.805542 411.245667,207.656845 410.926147,207.154800 
	C410.799927,205.598373 410.829346,204.222046 410.790710,202.437958 
z"/>
<path fill="#E32026" opacity="1.000000" stroke="none" 
	d="
M307.781616,215.701019 
	C307.703064,220.761108 308.159943,225.510925 307.273682,229.995300 
	C305.147644,240.753052 293.574829,247.744049 282.938171,244.946640 
	C281.694519,244.619568 280.089935,242.498032 280.067688,241.184433 
	C279.851135,228.393219 279.817688,215.594208 280.108185,202.805954 
	C280.139160,201.442017 282.407684,199.197784 283.905090,198.945419 
	C295.989899,196.908737 304.465729,202.870865 307.781616,215.701019 
z"/>
<path fill="#E42228" opacity="1.000000" stroke="none" 
	d="
M366.975800,198.648407 
	C380.159454,199.830627 386.015259,205.168365 387.292755,217.888290 
	C387.761871,222.559189 387.314484,227.567566 386.108765,232.109741 
	C383.657654,241.343399 371.294739,247.813705 362.198425,244.899246 
	C360.874969,244.475204 359.396973,242.013565 359.367798,240.468781 
	C359.135864,228.184296 359.272919,215.893402 359.218903,203.604797 
	C359.195190,198.209778 363.068970,198.781250 366.975800,198.648407 
z"/>
<path fill="#E52E34" opacity="1.000000" stroke="none" 
	d="
M209.924133,223.101532 
	C211.076385,225.132919 212.057938,226.838074 213.370636,229.118469 
	C206.660019,229.118469 200.434692,229.118469 193.423370,229.118469 
	C196.576752,223.278152 199.510895,217.843903 202.893951,211.578201 
	C205.398834,215.667068 207.576126,219.221176 209.924133,223.101532 
z"/>
<path fill="#E42228" opacity="1.000000" stroke="none" 
	d="
M331.402588,268.899292 
	C328.842865,268.950958 326.715179,268.950958 323.817566,268.950958 
	C325.278595,264.915680 321.165771,259.756622 326.283783,257.058319 
	C330.402527,254.886841 336.358002,257.607941 337.221405,261.046936 
	C338.353699,265.557037 335.952087,267.848358 331.402588,268.899292 
z"/>
<path fill="#E31E24" opacity="1.000000" stroke="none" 
	d="
M412.110596,208.013977 
	C412.193604,206.444290 411.530792,203.606445 414.732880,206.023407 
	C415.074829,205.926498 415.016357,205.859329 414.885925,206.199020 
	C415.163818,207.001129 415.572205,207.463562 415.980560,207.925980 
	C414.771362,208.032990 413.562164,208.139984 412.110596,208.013977 
z"/>
<path fill="#FDF2F2" opacity="1.000000" stroke="none" 
	d="
M415.932617,207.631165 
	C415.572205,207.463562 415.163818,207.001129 414.849762,206.225037 
	C415.257599,206.386368 415.571136,206.861359 415.932617,207.631165 
z"/>
</svg>