<svg data-name="Layer 1" xmlns="http://www.w3.org/2000/svg" viewBox="0 0 595.28 216">
    <path d="M495.77 40.19h1.7a2.77 2.77 0 0 0 1.67-.37 1.17 1.17 0 0 0 .45-1 1.18 1.18 0 0 0-.22-.69 1.22 1.22 0 0 0-.6-.46 4.28 4.28 0 0 0-1.4-.16h-1.6Zm-1.41 4.9v-8.71h3a7.41 7.41 0 0 1 2.23.24 2.22 2.22 0 0 1 1.09.84 2.27 2.27 0 0 1 .4 1.28 2.3 2.3 0 0 1-.68 1.66 2.65 2.65 0 0 1-1.8.8 2.08 2.08 0 0 1 .73.46 10.11 10.11 0 0 1 1.3 1.72l1.06 1.71H500l-.77-1.37a6.7 6.7 0 0 0-1.48-2 1.72 1.72 0 0 0-1.12-.3h-.82v3.7Zm3.55-11.23a7 7 0 0 0-3.32.87 6.25 6.25 0 0 0-2.52 2.5 6.76 6.76 0 0 0 0 6.74 6.46 6.46 0 0 0 2.5 2.5 6.79 6.79 0 0 0 6.72 0 6.39 6.39 0 0 0 2.5-2.5 6.79 6.79 0 0 0 0-6.74 6.28 6.28 0 0 0-2.53-2.5 7.06 7.06 0 0 0-3.35-.87Zm0-1.34a8.36 8.36 0 0 1 4 1 7.48 7.48 0 0 1 3 3 8.13 8.13 0 0 1 0 8.08 7.55 7.55 0 0 1-3 3 8.38 8.38 0 0 1-4 1.06 8.28 8.28 0 0 1-4-1.06 7.47 7.47 0 0 1-3-3 8.15 8.15 0 0 1-1.08-4 8.26 8.26 0 0 1 1.09-4 7.54 7.54 0 0 1 3-3 8.39 8.39 0 0 1 3.99-1.08Zm-69.07 111v-1.69h.87c2.82 0 4.89-.32 6.27-1.06 1.19-.5 1.81-1.69 1.81-3.51v-26a3.89 3.89 0 0 0-1.81-3.5c-1.13-.57-3.2-.88-6.27-.88h-.87v-1.78h57v11.58h-2.56c-1.38-3.82-3.58-6.26-6.64-7.32-2.82-1.26-8.33-1.82-16.47-1.82h-.76a11.5 11.5 0 0 0-4.38.5c-.75.38-1.11 1.25-1.11 2.57v12h1.11c4.9 0 8.21-.5 10.08-1.49s3.33-3.14 4.58-6.58h2.57v19.1h-2.57a14.74 14.74 0 0 0-4.58-7c-2.12-1.06-5.44-1.62-10.08-1.62H454V137c0 1.75.43 2.81 1.24 3.31a13.91 13.91 0 0 0 5.89.94q11.36-.18 16.34-2.07c3.69-1.19 7.32-3.82 11-7.89l2.37.38-2.2 5.88-2.18 5.89h-57.62Zm-45.52-19.85h3.32c5.13 0 8.71-.62 10.83-2 2.2-1.19 3.26-3.44 3.26-6.57a6.38 6.38 0 0 0-3.07-5.7c-1.88-1.26-4.77-1.82-8.64-1.82-2.19-.13-3.75 0-4.57.5s-1.13 1.25-1.13 2.57Zm-16 13.59v-26a3.88 3.88 0 0 0-1.83-3.5c-1.11-.57-3.19-.88-6.25-.88h-.88v-1.78h31.88c9.32 0 16.27.87 20.9 2.57s7 4.38 7 7.88q0 5-8.08 7.7a37.26 37.26 0 0 1-7 1.51l14.14 12.46a20.17 20.17 0 0 0 5.14 3.51 10.12 10.12 0 0 0 4.57 1.06h.38v1.69h-20.11l-21.48-17.66h-2.38v11.4a3.65 3.65 0 0 0 1.82 3.51c1.25.74 3.32 1.06 6.26 1.06h.94v1.69H358.4v-1.69h.88c2.82 0 4.89-.32 6.25-1.06 1.2-.5 1.83-1.73 1.83-3.51Zm-50.79 0v-29.72h-.37c-5.63 0-9.9.69-12.84 2.19a9.7 9.7 0 0 0-5.5 7.32h-3.32v-12h59.79v12h-2.95a10.19 10.19 0 0 0-5.49-7.32c-2.9-1.5-7.15-2.19-12.66-2.19h-.69v29.68c0 1.82.56 3 1.81 3.51 1.2.74 3.33 1.06 6.21 1.06h.94v1.69h-33.53v-1.69h.94c2.81 0 4.76-.32 5.82-1.06 1.25-.5 1.88-1.73 1.88-3.51ZM236.17 136c0 2.06.57 3.51 1.69 4.38 1.32.87 3.45 1.32 6.4 1.44h.74v1.69h-22v-1.69h.87c2.94-.12 5-.57 6.26-1.44S232 138 232 136v-25.2c-.87-.5-2.57-1.51-5.14-3.13a9.47 9.47 0 0 0-4-.88h-.19v-1.69h21.1l34.81 24.23v-16.65a5.44 5.44 0 0 0-1.81-4.45c-1.25-.93-3.31-1.44-6.26-1.44h-.88v-1.69h22v1.69h-.88c-2.81 0-4.95.51-6.26 1.44a5.61 5.61 0 0 0-1.82 4.45v31.67h-2.56l-43.9-30.8Zm-78.64 7.51v-1.69h.88c2.81 0 4.88-.32 6.27-1.06 1.18-.5 1.8-1.69 1.8-3.51v-26a3.9 3.9 0 0 0-1.8-3.5c-1.13-.57-3.21-.88-6.27-.88h-.88v-1.77h57.23v11.58H212c-1.38-3.82-3.57-6.26-6.64-7.32-2.82-1.26-8.33-1.82-16.47-1.82h-.75a11.43 11.43 0 0 0-4.38.5 2.73 2.73 0 0 0-1.32 2.57v12h1.32c4.88 0 8.2-.5 10.08-1.49s3.32-3.14 4.57-6.58H201v19.1h-2.56c-1.38-3.44-2.94-5.76-4.76-7-1.88-1.06-5.13-1.62-9.89-1.62h-1.32V137c0 1.75.5 2.81 1.44 3.31a13.91 13.91 0 0 0 5.89.94q11.37-.18 16.34-2.07c3.68-1.19 7.33-3.82 11-7.89l2.38.38-2.19 5.88-2.2 5.89h-57.6Zm270.93-56c0 2.32.57 3.88 1.64 4.58 1.12.87 3.24 1.18 6.44.93 9.27-.37 16.22-2.75 20.92-7.13q7.32-7.34 7.32-22.73c0-9.58-2.38-17-7.13-22.42-4.95-5-12-7.52-21.11-7.52-3.2 0-5.32.38-6.44 1.13s-1.64 2.26-1.64 4.57Zm-23.09-1.25V40c0-2.82-.88-4.88-2.58-6.2-2.13-1.25-5.07-1.88-9-1.88h-1.44v-2.71h47c15.77 0 27.93 2.95 36.5 9 8.77 5.88 13.21 14.2 13.21 25s-4.82 19.09-14.33 25.1-22.86 9-39.65 9h-42.56v-2.99h1.26c4.13 0 7.14-.63 9-1.87 1.71-1.19 2.59-3.26 2.59-6.2Zm-78.53 1.24c0 2.32.51 3.88 1.63 4.58 1.13.87 3.25 1.18 6.45.93 9.27-.37 16.21-2.75 20.91-7.13q7.34-7 7.33-22.73 0-14.74-7.14-22.42c-4.95-5-11.9-7.52-20.91-7.52-3.32 0-5.51.38-6.64 1.13s-1.63 2.26-1.63 4.57Zm-23.1-1.25V40c0-2.82-.88-4.88-2.58-6.2q-3.18-1.87-9-1.88h-1.45v-2.71h47c15.65 0 27.85 2.95 36.63 9s13.08 14.33 13.08 25-4.85 19.03-14.42 25.04-22.84 9-39.62 9h-42.54v-2.93h1.32c4.13 0 7.12-.63 9-1.87 1.7-1.19 2.58-3.26 2.58-6.2ZM216 72.85h26.24l-13.58-22.92h-.18Zm-14.84 13.4 34.31-58.73h3.83l35.94 58.73a19.16 19.16 0 0 0 5.14 6.2 9.18 9.18 0 0 0 6.06 1.87h.56v2.89h-46.4v-2.89h1.44c4.32 0 7.07-.68 8.46-2.06s1.18-3.32-.38-6l-5.32-8.83h-31.35l-4.95 8.83c-1.44 2.57-1.44 4.44 0 5.64 1.56 1.37 4.76 2.18 9.51 2.43h1.51v2.89h-29.74v-2.9h.74a9.88 9.88 0 0 0 5.7-2.06 18.06 18.06 0 0 0 4.95-6.01Zm-20.34-2.07A48.28 48.28 0 0 1 163 95a67.33 67.33 0 0 1-22.72 3.5c-14.4 0-26.24-3.37-35.37-10.07-9.33-6.52-14-14.91-14-25.3 0-10.08 4.64-18.48 14-25.37 9.38-6.69 21.22-10.07 35.37-10.07a72.47 72.47 0 0 1 24.43 3.88 8.88 8.88 0 0 0 6.06.31 4.53 4.53 0 0 0 3.64-3.26l.37-.93h3.89v24.6h-3.89a32.61 32.61 0 0 0-12.46-15.09 38.64 38.64 0 0 0-19.85-5.32c-8.76 0-15.53 2.69-20.16 8.08s-7.15 12.89-7.15 22.6 2.39 17.28 7.15 22.54 11.52 8.08 20.16 8.08a55.39 55.39 0 0 0 18-2.76 58.14 58.14 0 0 0 16-8.82Zm-29 52a43 43 0 0 1-12.46 6 58.06 58.06 0 0 1-15.77 2c-10.09 0-18.16-1.88-24.42-5.64-6.64-3.82-9.9-8.57-9.9-14.33s3.26-10.46 9.9-14.09c6.26-3.82 14.33-5.7 24.42-5.7a68.9 68.9 0 0 1 17 2 8 8 0 0 0 4.2.38 3.62 3.62 0 0 0 2.44-1.82l.31-.56h2.57v13.71h-2.57a19.65 19.65 0 0 0-8.76-8.39 28.76 28.76 0 0 0-13.59-3.13c-5.89 0-10.58 1.5-14.15 4.57-3.26 3.2-4.94 7.45-4.94 12.84s1.68 9.64 4.94 12.64c3.57 3.07 8.26 4.64 14.15 4.64a44.68 44.68 0 0 0 12.47-1.69 33.12 33.12 0 0 0 11-4.95Z" style="fill:#e72829"/>
    <path d="M416.18 181a6.53 6.53 0 0 0 1 3.75 3.34 3.34 0 0 0 3 1.4 3.81 3.81 0 0 0 2.11-.56 4.34 4.34 0 0 0 1.4-1.61v-7.21a4.36 4.36 0 0 0-1.41-1.51 3.65 3.65 0 0 0-2.08-.56 3.23 3.23 0 0 0-3 1.66 8.65 8.65 0 0 0-1 4.35Zm-2.8-.29a10.28 10.28 0 0 1 1.58-6 5.11 5.11 0 0 1 4.46-2.29 5.61 5.61 0 0 1 2.41.49 5 5 0 0 1 1.79 1.46v-8.49h2.81v22.26h-2.3l-.32-1.89a5 5 0 0 1-1.86 1.63 5.49 5.49 0 0 1-2.56.57 5.29 5.29 0 0 1-4.42-2 8.47 8.47 0 0 1-1.59-5.39Zm-8.85-6.09a3.06 3.06 0 0 0-2.41 1.19 5.9 5.9 0 0 0-1.23 3v.08h7.13v-.38a4.33 4.33 0 0 0-.88-2.77 3.2 3.2 0 0 0-2.61-1.08Zm.43 13.82a6.5 6.5 0 0 1-5.12-2.15 8 8 0 0 1-1.91-5.57v-.63a7.91 7.91 0 0 1 2-5.49 6.07 6.07 0 0 1 4.64-2.19 5.81 5.81 0 0 1 4.72 1.88 7.45 7.45 0 0 1 1.61 5v1.75h-10v.08a6.18 6.18 0 0 0 1.12 3.65 3.6 3.6 0 0 0 3 1.44 7.11 7.11 0 0 0 2.51-.4 5.62 5.62 0 0 0 1.86-1.13l1.11 1.82a6.46 6.46 0 0 1-2.19 1.37 8.89 8.89 0 0 1-3.31.61ZM386.12 186H396v2.19h-12.69v-20.8h2.81Zm-16.84-5.23a8.45 8.45 0 0 0-1-4.34 3.2 3.2 0 0 0-3-1.67 3.68 3.68 0 0 0-2.2.63 4.46 4.46 0 0 0-1.41 1.7v6.69a4.58 4.58 0 0 0 1.41 1.79 3.69 3.69 0 0 0 2.22.64 3.34 3.34 0 0 0 3-1.41 6.47 6.47 0 0 0 1-3.74Zm2.81.29a8.54 8.54 0 0 1-1.6 5.39 5.3 5.3 0 0 1-4.42 2 5.54 5.54 0 0 1-2.65-.6 5 5 0 0 1-1.88-1.74l-.33 2h-2.3v-22.2h2.81v8.65a4.68 4.68 0 0 1 1.8-1.57 5.57 5.57 0 0 1 2.52-.54 5.09 5.09 0 0 1 4.45 2.29 10.2 10.2 0 0 1 1.6 6Zm-27.64-.42a7.41 7.41 0 0 0 1 4.07 3.74 3.74 0 0 0 6.12 0 7.32 7.32 0 0 0 1-4.07v-.3a7.3 7.3 0 0 0-1-4 3.44 3.44 0 0 0-3.09-1.61 3.36 3.36 0 0 0-3 1.61 7.38 7.38 0 0 0-1 4Zm-2.81-.3a8.54 8.54 0 0 1 1.85-5.65 6.88 6.88 0 0 1 10.11 0 8.45 8.45 0 0 1 1.87 5.66v.3a8.46 8.46 0 0 1-1.86 5.66 6.9 6.9 0 0 1-10.11 0 8.47 8.47 0 0 1-1.86-5.65Zm-6.59-12.93h2.82v15a5.72 5.72 0 0 1-1.76 4.41 6.48 6.48 0 0 1-4.57 1.64 7 7 0 0 1-4.77-1.52 5.28 5.28 0 0 1-1.7-4.42v-.09h2.7a3.4 3.4 0 0 0 3.75 3.83 3.36 3.36 0 0 0 2.54-1.05 3.9 3.9 0 0 0 1-2.8Zm-20.9 20.78h-2.81v-2.89h2.81ZM297 172.73l.19 2.31a5.62 5.62 0 0 1 1.94-1.91 5.11 5.11 0 0 1 2.66-.68 5 5 0 0 1 3.85 1.46 6.4 6.4 0 0 1 1.37 4.52v9.74h-2.8v-9.68a4.17 4.17 0 0 0-.81-2.9 3.23 3.23 0 0 0-2.47-.85 4 4 0 0 0-2.14.57 4.36 4.36 0 0 0-1.5 1.6v11.26h-2.8v-15.44Zm-12 1.93a3.07 3.07 0 0 0-2.42 1.19 5.8 5.8 0 0 0-1.22 3v.08h7.13v-.38a4.28 4.28 0 0 0-.89-2.77 3.13 3.13 0 0 0-2.6-1.12Zm.43 13.82a6.56 6.56 0 0 1-5.14-2.15 8.12 8.12 0 0 1-1.89-5.57v-.63a7.86 7.86 0 0 1 2-5.49 6 6 0 0 1 4.64-2.19 5.84 5.84 0 0 1 4.73 1.88 7.6 7.6 0 0 1 1.59 5v1.75h-10v.08a6.11 6.11 0 0 0 1.11 3.65 3.63 3.63 0 0 0 3.05 1.44 7.19 7.19 0 0 0 2.51-.4 5.79 5.79 0 0 0 1.85-1.13l1.09 1.82a6.27 6.27 0 0 1-2.17 1.37 8.83 8.83 0 0 1-3.37.57Zm-16-4.86.24 1.09h.09l.27-1.09 3.56-10.89h2.86l-5.68 15.44h-2.13l-5.74-15.44h2.88ZM260 168.78h-2.82v-2.87H260Zm0 19.39h-2.82v-15.44H260Zm-5.76-12.95-1.45-.09a3.24 3.24 0 0 0-1.87.53 3.38 3.38 0 0 0-1.18 1.48v11h-2.8v-15.41h2.51l.26 2.26a5.63 5.63 0 0 1 1.62-1.87 3.79 3.79 0 0 1 2.23-.67 2.82 2.82 0 0 1 .59.05 3.61 3.61 0 0 1 .48.1ZM231 169.61V186h3.56a5.75 5.75 0 0 0 4.56-1.9 7.16 7.16 0 0 0 1.65-4.86v-2.88a7.09 7.09 0 0 0-1.65-4.83 5.75 5.75 0 0 0-4.56-1.9Zm-2.81 18.56v-20.78h6.37a8.55 8.55 0 0 1 9 9v2.85a8.52 8.52 0 0 1-9 8.95Zm-14.09-4.09a1.88 1.88 0 0 0-.72-1.52 6.67 6.67 0 0 0-2.67-1.05 11.23 11.23 0 0 1-4.23-1.66 3.37 3.37 0 0 1-1.42-2.86 4.06 4.06 0 0 1 1.59-3.21 7.28 7.28 0 0 1 8.46.05 4.08 4.08 0 0 1 1.52 3.37v.09H214a2.47 2.47 0 0 0-.86-1.82 3.13 3.13 0 0 0-2.24-.81 3.26 3.26 0 0 0-2.23.65 2.07 2.07 0 0 0-.73 1.59 1.76 1.76 0 0 0 .65 1.44 6.34 6.34 0 0 0 2.61.94 11.34 11.34 0 0 1 4.36 1.71 3.43 3.43 0 0 1 1.41 2.88 4 4 0 0 1-1.65 3.33 7 7 0 0 1-4.36 1.28 6.81 6.81 0 0 1-4.65-1.5 4.3 4.3 0 0 1-1.61-3.49v-.09h2.68a2.61 2.61 0 0 0 1.12 2.19 4.2 4.2 0 0 0 2.43.69 4 4 0 0 0 2.35-.6 1.89 1.89 0 0 0 .84-1.6Zm-13.31 4.09H198v-22.26h2.81Zm-7.37 0h-2.8v-22.26h2.8Zm-7.36-19.39h-2.8v-2.87h2.8Zm0 19.39h-2.8v-15.44h2.8Zm-13.37-7.11h-1.82v7.11h-2.82v-22.26h2.82v12.9h1.8l4.22-6.08h3.37l-5.28 7 6 8.41h-3.31Zm-11 1.88a3.06 3.06 0 0 0-1.07-2.39 8.86 8.86 0 0 0-3.79-1.62 12.58 12.58 0 0 1-5.15-2.31 4.79 4.79 0 0 1-1.85-3.84 5 5 0 0 1 2-4.05 8.9 8.9 0 0 1 10.59.24 5.55 5.55 0 0 1 1.94 4.33v.09h-2.68a3.84 3.84 0 0 0-1.21-2.95 5.9 5.9 0 0 0-6.68-.18 3.12 3.12 0 0 0-1.12 2.47 2.75 2.75 0 0 0 1.21 2.27 11.53 11.53 0 0 0 3.95 1.59 11.24 11.24 0 0 1 5 2.4 5.14 5.14 0 0 1 1.72 3.92 4.82 4.82 0 0 1-2.06 4 8.77 8.77 0 0 1-5.37 1.53 9.35 9.35 0 0 1-5.5-1.69 5.09 5.09 0 0 1-2.32-4.51v-.08h2.7a3.51 3.51 0 0 0 1.47 3 6.16 6.16 0 0 0 3.64 1 5.64 5.64 0 0 0 3.37-.9 2.85 2.85 0 0 0 1.2-2.32Z" style="fill:#231f20"/>
</svg>
