<?xml version="1.0" standalone="no"?>
<!DOCTYPE svg PUBLIC "-//W3C//DTD SVG 20010904//EN"
 "http://www.w3.org/TR/2001/REC-SVG-20010904/DTD/svg10.dtd">
<svg version="1.0" xmlns="http://www.w3.org/2000/svg"
 width="256.000000pt" height="256.000000pt" viewBox="0 0 256.000000 256.000000"
 preserveAspectRatio="xMidYMid meet">

<g transform="translate(0.000000,256.000000) scale(0.100000,-0.100000)"
fill="#000000" stroke="none">
<path d="M768 2392 c-251 -92 -471 -178 -488 -190 -35 -26 -69 -92 -70 -134 0
-15 11 -56 24 -92 l24 -64 -36 -7 c-86 -16 -171 -89 -202 -173 -19 -51 -20
-78 -20 -776 0 -827 -4 -783 85 -873 89 -88 20 -83 1120 -83 1100 0 1031 -5
1120 83 76 76 85 112 86 326 l0 176 51 25 c39 19 57 36 75 69 22 43 23 52 23
279 0 218 -2 239 -21 279 -22 46 -59 78 -102 88 l-27 7 0 174 c0 148 -3 181
-20 226 -31 85 -116 157 -203 173 l-37 7 0 78 c0 148 -26 221 -93 258 -27 14
-71 18 -301 22 l-269 5 -34 94 c-18 51 -43 107 -55 123 -25 37 -90 68 -138 67
-19 0 -238 -74 -492 -167z m509 6 c6 -7 20 -39 32 -70 l21 -58 -35 0 c-69 0
-140 -49 -164 -113 -6 -16 -11 -78 -11 -138 l0 -109 -352 2 -352 3 -29 79
c-16 43 -25 82 -20 86 7 8 879 328 894 330 4 0 11 -6 16 -12z m711 -385 l3
-103 -361 0 -360 0 0 98 c0 54 3 102 7 105 4 4 164 6 357 5 l351 -3 3 -102z
m203 -268 c60 -32 69 -62 69 -242 l0 -163 -132 0 c-168 0 -247 -13 -321 -52
-233 -124 -262 -455 -55 -618 86 -69 134 -80 333 -80 l175 0 0 -172 c0 -154
-2 -177 -20 -205 -40 -67 20 -63 -1035 -63 -1055 0 -995 -4 -1035 63 -19 31
-20 55 -20 740 0 781 -3 747 63 787 31 19 57 20 990 20 845 0 962 -2 988 -15z
m208 -569 c8 -9 11 -77 9 -222 l-3 -209 -252 0 -251 0 -43 30 c-56 39 -99 120
-99 184 0 100 71 191 168 217 69 19 456 19 471 0z"/>
<path d="M1953 1025 c-49 -21 -59 -77 -20 -113 31 -29 77 -29 105 1 57 60 -7
145 -85 112z"/>
</g>
</svg>
